<svg width="19" height="22" viewBox="0 0 19 22" fill="none" xmlns="http://www.w3.org/2000/svg">
<path d="M12.5 4.37992V17.6201C12.5 18.9055 10.989 19.5954 10.0176 18.7536L6.39126 15.6108C5.93673 15.2169 5.35541 15 4.75393 15H2C1.17157 15 0.5 14.3284 0.5 13.5V13V9V8.5C0.5 7.67157 1.17157 7 2 7H4.75393C5.35541 7 5.93673 6.78315 6.39126 6.38922L10.0176 3.24639C10.989 2.40455 12.5 3.09454 12.5 4.37992Z" fill="#777779" stroke="#777779"/>
<path d="M14 9C14.2847 9.14417 14.5449 9.46869 14.7244 9.92243C14.904 10.3762 15.0009 10.9334 15 11.5062C14.999 12.0791 14.9003 12.635 14.7192 13.0865C14.5382 13.538 14.2852 13.8594 14 14" stroke="#777779" stroke-linecap="round"/>
<path d="M16 7C16.5694 7.2595 17.0898 7.84364 17.4489 8.66038C17.808 9.47713 18.0019 10.4801 18 11.5112C17.9981 12.5423 17.8005 13.5431 17.4385 14.3558C17.0764 15.1685 16.5703 15.7469 16 16" stroke="#777779" stroke-linecap="round"/>
</svg>
